<svg width="46" height="46" viewBox="0 0 46 46" fill="none" xmlns="http://www.w3.org/2000/svg">
<path fill-rule="evenodd" clip-rule="evenodd" d="M30.625 20.125C30.625 19.3311 31.2686 18.6875 32.0625 18.6875H39.25C40.0439 18.6875 40.6875 19.3311 40.6875 20.125V41.6875C40.6875 42.4814 40.0439 43.125 39.25 43.125H32.0625C31.2686 43.125 30.625 42.4814 30.625 41.6875V20.125ZM33.5 21.5625V40.25H37.8125V21.5625H33.5ZM16.25 25.875C16.25 25.0811 16.8936 24.4375 17.6875 24.4375H24.875C25.6689 24.4375 26.3125 25.0811 26.3125 25.875V41.6875C26.3125 42.4814 25.6689 43.125 24.875 43.125H17.6875C16.8936 43.125 16.25 42.4814 16.25 41.6875V25.875ZM19.125 27.3125V40.25H23.4375V27.3125H19.125ZM1.875 31.625C1.875 30.8311 2.51859 30.1875 3.3125 30.1875H10.5C11.2939 30.1875 11.9375 30.8311 11.9375 31.625V41.6875C11.9375 42.4814 11.2939 43.125 10.5 43.125H3.3125C2.51859 43.125 1.875 42.4814 1.875 41.6875V31.625ZM4.75 33.0625V40.25H9.0625V33.0625H4.75Z" fill="#F7F7F7"/>
<path d="M4.75 40.25V33.0625H9.0625V40.25H4.75Z" fill="#F7F7F7"/>
<path d="M19.125 40.25V27.3125H23.4375V40.25H19.125Z" fill="#F7F7F7"/>
<path d="M33.5 40.25V21.5625H37.8125V40.25H33.5Z" fill="#F7F7F7"/>
<path fill-rule="evenodd" clip-rule="evenodd" d="M33.4998 4.3125C33.4998 3.51859 34.1434 2.875 34.9373 2.875H40.6873C41.4812 2.875 42.1248 3.51859 42.1248 4.3125V10.0625C42.1248 10.8564 41.4812 11.5 40.6873 11.5C39.8934 11.5 39.2498 10.8564 39.2498 10.0625V7.51359L28.7048 16.8869C28.228 17.3107 27.5289 17.3696 26.9879 17.0315L16.2068 10.2933L4.01039 17.0691C3.31638 17.4547 2.44123 17.2046 2.05567 16.5106C1.67012 15.8166 1.92016 14.9415 2.61416 14.5559L15.5517 7.3684C16.0089 7.11437 16.5681 7.12877 17.0116 7.406L27.5991 14.0231L36.9064 5.75H34.9373C34.1434 5.75 33.4998 5.10641 33.4998 4.3125Z" fill="#F7F7F7"/>
</svg>
